<svg id="svg" version="1.1" xmlns="http://www.w3.org/2000/svg" xmlns:xlink="http://www.w3.org/1999/xlink" width="400" height="114.77663230240549" viewBox="0, 0, 400,114.77663230240549"><g id="svgg"><path id="path0" d="M167.030 3.865 C 167.014 5.120,167.056 6.182,167.125 6.225 C 167.194 6.268,167.230 5.578,167.206 4.693 C 167.128 1.841,167.061 1.526,167.030 3.865 M169.083 6.167 C 169.018 6.272,169.415 6.333,170.157 6.333 C 170.830 6.333,171.333 6.262,171.333 6.167 C 171.333 6.073,170.864 6.000,170.260 6.000 C 169.669 6.000,169.140 6.075,169.083 6.167 M167.000 14.573 C 167.000 16.906,167.056 18.848,167.125 18.891 C 167.194 18.933,167.250 17.025,167.250 14.651 C 167.250 12.276,167.194 10.333,167.125 10.333 C 167.056 10.333,167.000 12.241,167.000 14.573 M0.000 46.167 L 0.000 56.333 7.240 56.333 C 11.222 56.333,14.521 56.398,14.570 56.478 C 14.619 56.558,15.033 56.672,15.489 56.733 C 15.946 56.793,16.361 56.910,16.412 56.993 C 16.463 57.075,16.781 57.233,17.118 57.345 C 17.852 57.587,17.920 57.638,19.226 58.925 C 19.789 59.479,20.411 60.266,20.609 60.675 C 20.806 61.083,21.089 61.676,21.238 61.992 C 21.386 62.308,21.592 63.096,21.695 63.742 C 21.799 64.388,21.966 65.022,22.066 65.151 C 22.198 65.318,22.264 72.410,22.298 90.026 L 22.346 114.667 27.011 114.667 C 30.591 114.667,31.695 114.618,31.755 114.458 C 31.799 114.344,31.852 97.840,31.875 77.784 L 31.917 41.319 31.554 41.228 C 31.354 41.178,31.150 41.031,31.101 40.902 C 31.051 40.772,30.902 40.667,30.769 40.667 C 30.636 40.667,30.503 40.601,30.472 40.521 C 30.387 40.299,28.494 39.333,28.143 39.333 C 27.973 39.333,27.833 39.262,27.833 39.174 C 27.833 39.087,27.571 38.966,27.250 38.906 C 26.929 38.845,26.667 38.737,26.667 38.665 C 26.667 38.592,26.273 38.441,25.792 38.328 C 25.310 38.215,24.838 38.061,24.741 37.985 C 24.645 37.909,24.008 37.758,23.325 37.649 C 22.642 37.540,22.006 37.391,21.912 37.319 C 21.818 37.246,21.143 37.135,20.412 37.072 C 19.681 37.008,18.994 36.886,18.886 36.800 C 18.777 36.714,18.170 36.660,17.537 36.681 C 16.903 36.701,16.317 36.677,16.234 36.627 C 16.151 36.577,13.571 36.481,10.500 36.415 C 7.429 36.348,4.892 36.227,4.861 36.147 C 4.831 36.066,3.724 36.000,2.403 36.000 L 0.000 36.000 0.000 46.167 M86.333 36.140 C 86.333 36.221,83.802 36.343,80.708 36.411 C 77.615 36.478,75.023 36.571,74.949 36.616 C 74.875 36.661,74.275 36.718,73.616 36.742 C 72.125 36.797,69.279 37.175,69.167 37.334 C 69.121 37.399,68.465 37.551,67.708 37.672 C 66.952 37.794,66.333 37.947,66.333 38.011 C 66.333 38.076,66.052 38.182,65.708 38.247 C 65.365 38.311,64.746 38.512,64.333 38.694 C 63.921 38.875,63.358 39.123,63.083 39.244 C 62.808 39.364,62.415 39.514,62.208 39.576 C 62.002 39.638,61.833 39.744,61.833 39.811 C 61.833 39.878,61.571 40.028,61.250 40.144 C 60.929 40.260,60.667 40.425,60.667 40.511 C 60.667 40.597,60.552 40.667,60.411 40.667 C 60.271 40.667,60.116 40.772,60.066 40.902 C 60.016 41.031,59.813 41.178,59.613 41.228 L 59.250 41.319 59.292 77.993 L 59.335 114.667 64.078 114.667 L 68.822 114.667 68.869 89.859 C 68.904 71.812,68.968 64.987,69.104 64.817 C 69.207 64.689,69.343 64.227,69.406 63.791 C 69.469 63.355,69.628 62.792,69.759 62.541 C 69.891 62.289,69.998 61.920,69.999 61.720 C 70.000 61.521,70.094 61.258,70.208 61.137 C 70.323 61.016,70.529 60.692,70.667 60.417 C 71.123 59.504,72.425 58.099,72.977 57.924 C 73.173 57.862,73.333 57.741,73.333 57.655 C 73.333 57.570,73.412 57.500,73.508 57.500 C 73.604 57.500,73.997 57.348,74.382 57.162 C 74.767 56.976,75.382 56.779,75.749 56.723 C 76.116 56.667,76.498 56.558,76.597 56.480 C 76.695 56.403,80.052 56.335,84.056 56.330 L 91.336 56.320 91.293 46.202 L 91.250 36.083 88.792 36.037 C 87.430 36.012,86.333 36.057,86.333 36.140 M124.747 60.500 C 124.747 68.979,124.767 72.448,124.792 68.208 C 124.816 63.969,124.816 57.031,124.792 52.792 C 124.767 48.552,124.747 52.021,124.747 60.500 M216.572 104.833 C 216.572 107.171,216.596 108.127,216.625 106.958 C 216.653 105.790,216.653 103.877,216.625 102.708 C 216.596 101.540,216.572 102.496,216.572 104.833 " stroke="none" fill="#646464" fill-rule="evenodd"></path><path id="path1" d="M0.041 13.542 L 0.083 26.750 0.544 26.803 C 0.798 26.832,0.972 26.910,0.932 26.976 C 0.891 27.041,0.984 27.103,1.137 27.112 C 2.572 27.200,5.151 27.564,5.417 27.716 C 5.649 27.849,8.087 27.927,13.481 27.971 C 17.733 28.007,21.128 28.088,21.025 28.151 C 20.921 28.215,21.792 28.281,22.960 28.297 C 24.128 28.314,25.571 28.367,26.167 28.416 C 28.960 28.644,29.500 28.709,29.500 28.817 C 29.500 28.880,30.215 29.023,31.090 29.133 C 31.964 29.244,32.851 29.446,33.060 29.583 C 33.269 29.720,33.635 29.848,33.874 29.868 C 34.114 29.888,34.273 29.963,34.228 30.035 C 34.184 30.108,34.264 30.176,34.407 30.188 C 34.550 30.199,34.723 30.224,34.792 30.242 C 34.860 30.261,35.198 30.335,35.542 30.406 C 35.885 30.478,36.167 30.604,36.167 30.685 C 36.167 30.767,36.269 30.833,36.394 30.833 C 36.519 30.833,36.812 30.983,37.045 31.167 C 37.279 31.350,37.585 31.500,37.726 31.500 C 37.868 31.500,38.043 31.594,38.117 31.709 C 38.190 31.823,38.475 32.029,38.750 32.167 C 39.025 32.304,39.304 32.491,39.369 32.583 C 39.434 32.675,39.547 32.756,39.619 32.764 C 39.953 32.801,40.421 33.095,40.834 33.527 C 41.083 33.787,41.333 34.000,41.391 34.000 C 41.574 34.000,44.500 36.988,44.500 37.174 C 44.500 37.273,44.575 37.307,44.667 37.250 C 44.758 37.193,44.833 37.261,44.833 37.401 C 44.833 37.605,45.293 37.999,45.531 38.000 C 45.560 38.000,45.531 37.232,45.467 36.292 C 45.235 32.902,45.117 13.025,45.315 10.763 L 45.503 8.610 44.960 8.145 C 44.661 7.889,44.334 7.677,44.234 7.673 C 44.133 7.670,43.878 7.517,43.667 7.333 C 43.455 7.150,43.230 7.000,43.167 7.000 C 43.103 7.000,42.878 6.850,42.667 6.667 C 42.455 6.483,42.139 6.333,41.965 6.333 C 41.790 6.333,41.690 6.264,41.742 6.180 C 41.794 6.096,41.606 5.976,41.324 5.915 C 41.042 5.853,40.775 5.708,40.730 5.592 C 40.686 5.477,40.241 5.284,39.742 5.165 C 39.242 5.045,38.833 4.890,38.833 4.820 C 38.833 4.750,38.591 4.640,38.294 4.575 C 37.998 4.510,37.604 4.359,37.419 4.240 C 37.234 4.122,36.802 3.973,36.458 3.910 C 36.115 3.848,35.833 3.739,35.833 3.668 C 35.833 3.598,35.215 3.446,34.458 3.329 C 33.702 3.213,33.042 3.054,32.991 2.976 C 32.940 2.899,32.433 2.786,31.866 2.727 C 31.298 2.668,30.833 2.561,30.833 2.491 C 30.833 2.420,30.512 2.370,30.118 2.379 C 29.725 2.388,29.327 2.349,29.233 2.291 C 29.140 2.234,28.112 2.133,26.948 2.069 C 25.785 2.004,24.833 1.896,24.833 1.829 C 24.833 1.762,22.415 1.659,19.458 1.602 C 10.514 1.427,6.754 1.301,6.667 1.172 C 6.621 1.105,5.762 0.998,4.758 0.934 C 3.754 0.870,2.854 0.754,2.758 0.674 C 2.662 0.595,2.265 0.542,1.875 0.557 C 1.485 0.571,1.167 0.527,1.167 0.458 C 1.167 0.390,0.904 0.333,0.582 0.333 L -0.002 0.333 0.041 13.542 M15.958 28.291 C 16.806 28.321,18.194 28.321,19.042 28.291 C 19.890 28.261,19.196 28.236,17.500 28.236 C 15.804 28.236,15.110 28.261,15.958 28.291 M72.050 28.291 C 72.856 28.321,74.131 28.321,74.883 28.291 C 75.635 28.260,74.975 28.235,73.417 28.235 C 71.858 28.235,71.243 28.260,72.050 28.291 " stroke="none" fill="#eb343b" fill-rule="evenodd"></path><path id="path2" d="M167.233 3.833 C 167.233 5.162,167.259 5.706,167.290 5.042 C 167.322 4.377,167.322 3.290,167.290 2.625 C 167.259 1.960,167.233 2.504,167.233 3.833 M167.242 10.545 C 167.197 10.661,167.182 12.592,167.208 14.836 L 167.256 18.917 167.295 14.792 L 167.333 10.667 169.500 10.667 C 170.833 10.667,171.667 10.603,171.667 10.500 C 171.667 10.236,167.343 10.280,167.242 10.545 M58.687 41.763 C 58.473 41.985,58.231 42.167,58.149 42.167 C 57.929 42.167,57.345 42.789,57.458 42.903 C 57.512 42.956,57.480 43.000,57.387 43.000 C 56.938 43.000,54.542 45.685,53.742 47.083 C 53.480 47.542,53.225 47.954,53.175 48.000 C 52.815 48.329,51.000 52.776,51.000 53.329 C 51.000 53.504,50.920 53.697,50.822 53.757 C 50.724 53.818,50.683 53.970,50.731 54.095 C 50.779 54.220,50.757 54.361,50.681 54.408 C 50.606 54.454,50.491 54.962,50.426 55.536 C 50.361 56.110,50.244 56.619,50.167 56.667 C 49.426 57.125,49.426 110.891,50.167 111.139 C 50.259 111.169,50.333 111.327,50.333 111.488 C 50.333 112.009,51.861 113.627,52.499 113.783 C 52.729 113.839,52.960 113.950,53.013 114.030 C 53.154 114.244,54.794 114.455,57.208 114.570 L 59.333 114.672 59.333 78.096 C 59.333 57.979,59.275 41.484,59.204 41.440 C 59.133 41.396,58.900 41.541,58.687 41.763 M31.911 41.708 C 31.670 42.348,31.758 114.666,32.000 114.661 C 35.159 114.592,38.237 114.248,38.072 113.982 C 38.022 113.900,38.164 113.833,38.389 113.833 C 38.614 113.833,38.841 113.721,38.894 113.583 C 38.946 113.446,39.088 113.333,39.208 113.333 C 39.590 113.333,40.447 112.415,40.657 111.780 C 40.768 111.443,40.919 111.167,40.991 111.167 C 41.736 111.167,41.754 57.914,41.010 56.917 C 40.942 56.825,40.787 56.094,40.666 55.292 C 40.545 54.490,40.392 53.833,40.325 53.833 C 40.259 53.833,40.154 53.496,40.092 53.083 C 40.030 52.671,39.921 52.333,39.850 52.333 C 39.778 52.333,39.627 51.921,39.515 51.417 C 39.402 50.913,39.252 50.500,39.181 50.500 C 39.111 50.500,38.954 50.200,38.833 49.833 C 38.712 49.467,38.550 49.167,38.473 49.167 C 38.396 49.167,38.341 49.110,38.351 49.042 C 38.388 48.790,38.124 48.167,37.981 48.167 C 37.900 48.167,37.833 48.083,37.833 47.980 C 37.833 47.704,36.986 46.359,36.458 45.796 C 36.206 45.528,36.000 45.244,36.000 45.167 C 36.000 44.960,33.328 42.350,32.792 42.033 C 32.540 41.884,32.333 41.703,32.333 41.631 C 32.333 41.419,31.997 41.481,31.911 41.708 M125.875 89.058 C 125.669 89.262,125.500 89.561,125.500 89.724 C 125.500 89.887,125.427 89.975,125.338 89.919 C 125.233 89.855,125.173 94.047,125.169 101.743 C 125.165 108.301,125.221 113.667,125.292 113.667 C 125.363 113.667,125.495 113.833,125.585 114.036 C 125.956 114.868,129.565 114.929,130.264 114.116 L 130.667 113.648 130.667 108.824 L 130.667 104.000 134.208 103.996 C 137.893 103.992,139.352 103.909,139.917 103.673 C 140.100 103.596,140.509 103.436,140.826 103.316 C 141.406 103.096,141.593 102.960,142.449 102.131 C 143.158 101.446,143.310 101.234,143.428 100.764 C 143.487 100.527,143.591 100.333,143.657 100.333 C 143.854 100.333,143.872 100.080,143.944 96.380 C 144.016 92.671,143.831 91.563,143.063 91.117 C 142.937 91.043,142.833 90.872,142.833 90.736 C 142.833 90.601,142.714 90.444,142.567 90.387 C 142.421 90.331,142.065 90.069,141.776 89.804 C 141.487 89.540,140.950 89.243,140.583 89.146 C 140.217 89.048,139.786 88.901,139.627 88.818 C 138.902 88.439,126.278 88.659,125.875 89.058 M232.500 88.833 C 232.500 88.925,232.387 89.000,232.250 89.000 C 231.302 89.000,231.333 88.562,231.333 101.678 C 231.333 109.459,231.393 113.800,231.502 114.004 C 232.064 115.054,236.184 114.892,236.422 113.810 C 236.479 113.548,236.596 113.333,236.680 113.333 C 236.769 113.333,236.833 111.748,236.833 109.561 C 236.833 105.704,236.933 105.293,237.517 106.750 C 237.608 106.978,239.538 109.896,239.666 110.000 C 239.723 110.046,239.867 110.326,239.987 110.623 C 240.107 110.920,240.264 111.126,240.335 111.082 C 240.406 111.038,240.512 111.194,240.571 111.428 C 240.695 111.919,241.668 113.357,242.365 114.079 C 242.856 114.586,246.423 114.931,247.746 114.599 C 248.374 114.442,248.225 112.686,247.561 112.431 C 247.424 112.379,247.359 112.260,247.417 112.167 C 247.474 112.074,247.404 111.953,247.261 111.898 C 247.117 111.843,247.000 111.719,247.000 111.623 C 247.000 111.527,246.813 111.202,246.583 110.902 C 246.354 110.601,246.167 110.287,246.167 110.204 C 246.167 110.120,246.017 109.916,245.833 109.750 C 245.650 109.584,245.500 109.347,245.500 109.224 C 245.500 109.101,245.429 109.000,245.342 109.000 C 245.256 109.000,245.087 108.822,244.967 108.604 C 244.263 107.322,244.100 107.070,243.894 106.950 C 243.769 106.877,243.667 106.708,243.667 106.575 C 243.667 106.442,243.592 106.333,243.500 106.333 C 243.408 106.333,243.333 106.261,243.333 106.172 C 243.333 105.990,242.332 104.476,242.101 104.308 C 242.019 104.249,242.005 104.061,242.070 103.892 C 242.135 103.722,242.197 103.546,242.208 103.500 C 242.219 103.454,242.439 103.231,242.697 103.005 C 242.955 102.778,243.167 102.527,243.167 102.448 C 243.167 102.368,243.364 102.094,243.605 101.839 C 243.846 101.583,244.052 101.315,244.063 101.242 C 244.082 101.116,244.594 100.521,245.633 99.417 C 245.891 99.142,246.152 98.785,246.213 98.625 C 246.273 98.465,246.391 98.333,246.475 98.333 C 246.558 98.333,246.717 98.114,246.828 97.845 C 246.940 97.577,247.136 97.317,247.265 97.267 C 247.394 97.218,247.500 97.094,247.500 96.993 C 247.500 96.892,247.617 96.693,247.759 96.551 C 247.912 96.397,247.997 96.079,247.967 95.771 L 247.917 95.250 245.400 95.250 L 242.884 95.250 242.126 96.031 C 241.708 96.460,241.396 96.841,241.432 96.876 C 241.467 96.912,241.272 97.156,240.998 97.418 C 240.724 97.681,240.500 97.957,240.500 98.031 C 240.500 98.168,240.445 98.237,239.417 99.392 C 239.102 99.745,238.802 100.170,238.749 100.335 C 238.697 100.501,238.544 100.678,238.410 100.729 C 238.276 100.781,238.167 100.910,238.167 101.017 C 238.167 101.124,237.998 101.381,237.792 101.588 C 237.585 101.795,237.289 102.141,237.132 102.357 C 236.862 102.730,236.848 102.451,236.841 96.800 C 236.837 93.527,236.764 90.677,236.678 90.466 C 236.593 90.256,236.478 89.875,236.424 89.620 C 236.349 89.273,236.200 89.132,235.829 89.057 C 235.556 89.003,235.333 88.893,235.333 88.813 C 235.333 88.732,234.696 88.667,233.917 88.667 C 233.083 88.667,232.500 88.735,232.500 88.833 M290.000 88.797 C 290.000 88.868,289.787 89.007,289.526 89.106 C 288.957 89.321,288.837 89.989,288.835 92.958 L 288.833 94.833 287.708 94.853 C 287.090 94.864,286.522 94.862,286.446 94.849 C 286.370 94.836,286.356 94.902,286.414 94.996 C 286.477 95.098,286.317 95.167,286.013 95.167 C 285.272 95.167,284.833 96.094,284.833 97.660 C 284.833 98.305,284.903 98.833,284.989 98.833 C 285.074 98.833,285.190 98.978,285.246 99.155 C 285.374 99.557,286.050 99.713,287.603 99.700 L 288.794 99.689 288.866 105.053 C 288.948 111.214,288.993 111.420,290.606 113.088 C 292.017 114.547,292.162 114.583,296.638 114.583 C 300.295 114.583,300.541 114.564,300.763 114.260 C 300.893 114.082,301.001 114.007,301.003 114.093 C 301.004 114.179,301.078 114.138,301.167 114.000 C 301.256 113.862,301.329 113.105,301.331 112.317 C 301.335 110.145,301.283 110.106,298.195 109.996 C 294.281 109.856,294.596 110.340,294.534 104.375 L 294.485 99.667 297.064 99.667 C 299.736 99.667,300.167 99.561,300.167 98.905 C 300.167 98.774,300.242 98.667,300.333 98.667 C 300.431 98.667,300.500 98.112,300.500 97.335 C 300.500 95.894,300.309 95.472,299.500 95.124 C 298.899 94.865,299.021 94.877,296.667 94.854 L 294.500 94.833 294.500 92.262 C 294.500 89.543,294.444 89.330,293.666 89.083 C 293.483 89.025,293.333 88.908,293.333 88.822 C 293.333 88.736,292.586 88.667,291.667 88.667 C 290.750 88.667,290.000 88.725,290.000 88.797 M136.227 93.116 C 136.291 93.180,136.463 93.249,136.609 93.271 C 138.938 93.613,139.315 98.538,137.055 99.105 C 136.841 99.159,136.667 99.270,136.667 99.351 C 136.667 99.433,135.317 99.500,133.667 99.500 L 130.667 99.500 130.667 96.250 L 130.667 93.000 133.389 93.000 C 134.886 93.000,136.163 93.052,136.227 93.116 M148.333 94.982 C 148.333 95.064,148.146 95.178,147.917 95.235 C 147.688 95.293,147.500 95.451,147.500 95.587 C 147.500 95.722,147.425 95.833,147.333 95.833 C 147.225 95.833,147.167 98.444,147.167 103.333 C 147.167 107.458,147.230 110.833,147.307 110.833 C 147.384 110.833,147.534 111.123,147.640 111.478 C 147.847 112.169,149.551 114.091,149.813 113.929 C 149.897 113.878,150.003 113.933,150.048 114.052 C 150.350 114.839,160.363 114.928,160.845 114.148 C 160.920 114.026,161.032 113.977,161.094 114.039 C 161.156 114.100,161.302 114.061,161.418 113.950 C 161.534 113.840,161.839 113.600,162.094 113.417 C 162.760 112.939,163.169 112.472,163.067 112.307 C 163.019 112.228,163.085 112.123,163.216 112.073 C 163.346 112.023,163.551 111.668,163.672 111.283 C 163.793 110.898,163.953 110.512,164.029 110.425 C 164.105 110.338,164.164 107.075,164.161 103.175 C 164.155 95.280,164.181 95.461,163.014 95.228 C 162.731 95.171,162.500 95.059,162.500 94.979 C 162.500 94.899,161.900 94.833,161.167 94.833 C 160.389 94.833,159.833 94.903,159.833 95.000 C 159.833 95.092,159.692 95.167,159.519 95.167 C 158.733 95.167,158.688 95.531,158.634 102.367 C 158.588 108.206,158.557 108.800,158.292 109.066 C 158.131 109.226,158.000 109.455,158.000 109.575 C 158.000 110.063,154.588 110.404,153.820 109.993 C 153.641 109.897,153.312 109.529,153.088 109.175 L 152.682 108.531 152.633 102.167 L 152.583 95.804 152.190 95.485 C 151.973 95.310,151.617 95.167,151.398 95.167 C 151.179 95.167,151.000 95.092,151.000 95.000 C 151.000 94.903,150.444 94.833,149.667 94.833 C 148.933 94.833,148.333 94.900,148.333 94.982 M168.968 95.105 C 168.722 95.236,168.473 95.490,168.415 95.671 C 168.358 95.852,168.241 96.000,168.155 96.000 C 167.932 96.000,167.948 113.454,168.172 113.715 C 168.267 113.826,168.449 114.067,168.576 114.250 C 169.000 114.863,172.528 114.745,173.083 114.099 L 173.500 113.615 173.500 106.891 C 173.500 100.375,173.510 100.167,173.819 100.167 C 173.995 100.167,174.170 100.073,174.208 99.958 C 174.260 99.803,174.998 99.747,177.097 99.739 C 181.141 99.723,181.221 99.680,181.309 97.461 C 181.374 95.799,181.238 95.507,180.191 95.070 C 179.518 94.788,175.333 94.728,175.333 95.000 C 175.333 95.092,175.082 95.167,174.775 95.167 C 174.468 95.167,173.980 95.249,173.691 95.350 C 173.248 95.504,173.074 95.478,172.574 95.183 C 171.859 94.761,169.708 94.715,168.968 95.105 M185.250 95.000 C 185.193 95.092,185.015 95.167,184.854 95.167 C 183.855 95.167,183.833 95.339,183.833 103.262 L 183.833 110.521 184.236 111.386 C 185.007 113.039,186.487 114.245,188.073 114.512 C 190.046 114.846,194.500 114.499,194.500 114.012 C 194.500 113.758,195.233 113.675,195.494 113.899 C 196.573 114.826,204.667 114.917,204.667 114.002 C 204.667 113.924,204.892 113.810,205.168 113.750 C 205.444 113.689,205.632 113.579,205.587 113.506 C 205.541 113.432,205.728 113.279,206.002 113.166 C 206.276 113.052,206.500 112.905,206.500 112.839 C 206.500 112.773,206.683 112.505,206.907 112.245 C 207.131 111.984,207.282 111.718,207.242 111.654 C 207.203 111.590,207.282 111.445,207.419 111.332 C 207.632 111.155,207.667 110.049,207.667 103.486 L 207.667 95.846 207.302 95.506 C 207.101 95.320,206.816 95.167,206.669 95.167 C 206.521 95.167,206.299 95.073,206.176 94.958 C 205.993 94.789,205.977 94.797,206.091 95.000 C 206.209 95.211,206.189 95.216,205.962 95.032 C 205.674 94.799,203.500 94.783,203.500 95.015 C 203.500 95.086,203.336 95.167,203.135 95.197 C 202.327 95.315,202.190 96.353,202.186 102.417 C 202.184 105.442,202.179 108.308,202.175 108.787 C 202.156 110.766,198.523 110.516,198.493 108.534 C 198.490 108.286,198.471 105.335,198.452 101.976 C 198.413 95.201,198.407 95.167,197.308 95.167 C 197.047 95.167,196.833 95.092,196.833 95.000 C 196.833 94.903,196.274 94.833,195.490 94.833 C 194.751 94.833,194.188 94.899,194.237 94.980 C 194.287 95.060,194.123 95.168,193.872 95.219 C 192.927 95.413,192.921 95.456,192.864 103.033 L 192.811 109.983 192.087 110.091 C 190.771 110.289,189.731 109.788,189.398 108.797 C 189.328 108.588,189.291 105.640,189.315 102.247 L 189.360 96.077 188.938 95.622 C 188.706 95.372,188.400 95.167,188.258 95.167 C 188.116 95.167,188.000 95.092,188.000 95.000 C 188.000 94.903,187.448 94.833,186.677 94.833 C 185.949 94.833,185.307 94.908,185.250 95.000 M215.583 95.000 C 215.640 95.092,215.522 95.167,215.321 95.167 C 214.799 95.167,213.667 95.527,213.667 95.693 C 213.667 95.770,213.569 95.833,213.450 95.833 C 213.200 95.833,211.833 97.217,211.833 97.470 C 211.833 97.563,211.759 97.664,211.668 97.694 C 211.577 97.725,211.410 98.144,211.295 98.625 C 211.181 99.106,211.031 99.500,210.961 99.500 C 210.891 99.500,210.833 101.900,210.833 104.833 C 210.833 107.767,210.891 110.167,210.961 110.167 C 211.031 110.167,211.181 110.560,211.295 111.042 C 211.410 111.523,211.577 111.942,211.668 111.972 C 211.759 112.003,211.833 112.106,211.833 112.202 C 211.833 112.438,213.241 113.833,213.478 113.833 C 213.582 113.833,213.667 113.892,213.667 113.963 C 213.667 114.877,223.871 114.951,224.875 114.045 C 225.035 113.900,225.167 113.831,225.167 113.892 C 225.167 113.952,225.479 113.776,225.860 113.500 C 226.523 113.020,226.722 112.772,227.198 111.833 C 227.315 111.604,227.472 111.372,227.547 111.318 C 228.274 110.796,228.144 98.954,227.404 98.213 C 227.273 98.083,227.167 97.827,227.167 97.645 C 227.167 97.463,227.092 97.360,227.000 97.417 C 226.908 97.473,226.833 97.456,226.833 97.378 C 226.833 96.792,224.945 95.396,223.953 95.247 C 223.518 95.182,223.122 95.062,223.071 94.981 C 223.021 94.900,221.293 94.833,219.230 94.833 C 216.773 94.833,215.516 94.891,215.583 95.000 M254.833 94.971 C 254.833 95.053,254.433 95.161,253.944 95.212 C 252.685 95.342,250.500 96.772,250.500 97.466 C 250.500 97.567,250.396 97.710,250.268 97.783 C 249.768 98.070,249.669 99.241,249.669 104.833 C 249.669 110.275,249.753 111.364,250.222 111.956 C 250.447 112.240,251.855 113.638,252.265 113.985 C 252.906 114.527,254.305 114.650,260.000 114.662 L 265.609 114.675 266.055 114.262 C 266.300 114.035,266.500 113.671,266.500 113.452 C 266.500 113.234,266.555 113.000,266.623 112.932 C 266.798 112.757,266.815 111.833,266.643 111.833 C 266.564 111.833,266.500 111.605,266.500 111.326 C 266.500 111.009,266.346 110.664,266.091 110.409 L 265.682 110.000 261.180 110.000 C 256.270 110.000,255.604 109.891,255.393 109.050 C 255.340 108.839,255.245 108.667,255.182 108.667 C 255.119 108.667,255.098 108.404,255.135 108.083 L 255.203 107.500 258.102 107.500 C 259.923 107.500,261.000 107.438,261.000 107.333 C 261.000 107.241,261.448 107.167,262.010 107.167 C 263.094 107.167,264.500 106.880,264.500 106.658 C 264.500 106.584,264.657 106.473,264.850 106.411 C 265.205 106.299,265.833 105.755,265.833 105.560 C 265.833 105.501,265.952 105.367,266.096 105.261 C 266.264 105.138,266.392 104.696,266.453 104.030 C 266.505 103.458,266.612 102.951,266.690 102.902 C 266.879 102.786,266.874 101.944,266.684 101.742 C 266.602 101.655,266.504 100.890,266.466 100.043 C 266.410 98.788,266.330 98.410,266.032 98.008 C 265.831 97.736,265.667 97.431,265.667 97.330 C 265.667 97.229,265.592 97.193,265.500 97.250 C 265.408 97.307,265.333 97.272,265.333 97.174 C 265.333 97.019,264.668 96.324,263.961 95.738 C 263.633 95.468,262.675 95.167,262.142 95.167 C 261.880 95.167,261.667 95.097,261.667 95.012 C 261.667 94.923,260.226 94.850,258.250 94.840 C 256.348 94.831,254.833 94.889,254.833 94.971 M272.083 95.000 C 272.141 95.093,272.012 95.167,271.790 95.167 C 271.572 95.167,271.230 95.355,271.030 95.585 L 270.667 96.003 270.672 104.876 C 270.676 112.197,270.718 113.804,270.909 114.056 C 271.515 114.856,275.667 114.877,275.667 114.081 C 275.667 113.960,275.738 113.836,275.825 113.806 C 276.094 113.711,276.142 112.625,276.155 106.359 C 276.166 100.459,276.175 100.300,276.498 100.215 C 276.680 100.168,276.795 100.073,276.752 100.004 C 276.632 99.809,278.209 99.670,280.583 99.666 C 283.250 99.661,283.380 99.628,283.723 98.848 C 284.029 98.156,284.112 96.000,283.833 96.000 C 283.742 96.000,283.667 95.851,283.667 95.670 C 283.667 95.444,283.522 95.309,283.208 95.243 C 282.956 95.190,282.620 95.076,282.461 94.990 C 282.061 94.774,277.616 94.783,277.750 95.000 C 277.810 95.097,277.644 95.167,277.354 95.167 C 277.080 95.167,276.647 95.246,276.392 95.343 C 275.936 95.516,275.754 95.474,274.774 94.968 C 274.537 94.846,274.494 94.860,274.590 95.029 C 274.691 95.207,274.672 95.209,274.491 95.042 C 274.218 94.788,271.928 94.748,272.083 95.000 M307.833 95.000 C 307.833 95.092,307.670 95.167,307.470 95.167 C 306.998 95.167,306.000 95.529,306.000 95.700 C 306.000 95.773,305.896 95.833,305.770 95.833 C 305.428 95.833,303.667 97.852,303.666 98.245 C 303.665 98.431,303.553 98.798,303.416 99.061 C 303.137 99.595,303.035 110.116,303.305 110.425 C 303.381 110.512,303.534 110.902,303.645 111.292 C 303.756 111.681,303.919 112.000,304.007 112.000 C 304.095 112.000,304.168 112.094,304.169 112.208 C 304.173 112.461,305.566 113.833,305.820 113.833 C 305.919 113.833,306.000 113.900,306.000 113.982 C 306.000 114.064,306.206 114.188,306.458 114.258 C 306.710 114.328,307.029 114.423,307.167 114.468 C 307.782 114.672,315.036 114.682,315.961 114.481 C 316.487 114.366,316.975 114.286,317.046 114.304 C 317.118 114.322,317.219 114.224,317.272 114.086 C 317.325 113.948,317.429 113.873,317.503 113.918 C 317.681 114.028,319.472 112.186,319.606 111.754 C 319.664 111.569,319.795 111.363,319.897 111.298 C 320.027 111.215,320.098 109.369,320.133 105.211 L 320.182 99.243 319.773 98.330 C 319.361 97.411,318.020 95.833,317.651 95.833 C 317.542 95.833,317.370 95.720,317.268 95.580 C 317.166 95.440,316.695 95.281,316.213 95.224 C 315.734 95.168,315.382 95.056,315.431 94.977 C 315.480 94.898,313.792 94.833,311.677 94.833 C 309.226 94.833,307.833 94.894,307.833 95.000 M221.917 99.762 C 222.234 100.002,222.252 100.239,222.299 104.674 L 222.348 109.334 221.932 109.750 C 221.534 110.148,221.425 110.167,219.549 110.164 C 216.320 110.161,216.458 110.420,216.533 104.500 C 216.590 99.956,216.585 99.996,217.167 99.716 C 217.808 99.407,221.493 99.443,221.917 99.762 M260.243 99.604 C 260.643 99.757,261.000 100.561,261.000 101.311 C 261.000 102.546,261.116 102.500,257.982 102.500 L 255.167 102.500 255.167 101.688 C 255.167 100.437,255.338 99.822,255.732 99.663 C 256.139 99.499,259.842 99.450,260.243 99.604 M314.061 99.687 C 314.645 99.953,314.662 100.104,314.664 104.966 L 314.667 109.348 314.245 109.770 C 313.605 110.410,309.502 110.329,308.994 109.667 C 308.648 109.215,308.477 100.500,308.814 100.500 C 308.895 100.500,309.000 100.350,309.048 100.167 C 309.212 99.541,312.955 99.183,314.061 99.687 " stroke="none" fill="#89898e" fill-rule="evenodd"></path><path id="path3" d="M114.087 0.177 C 112.948 0.517,113.008 -0.164,113.004 12.549 L 113.000 24.015 113.418 24.466 C 114.029 25.124,117.493 25.167,118.015 24.523 C 118.382 24.070,118.525 1.336,118.165 0.663 C 117.850 0.074,115.407 -0.217,114.087 0.177 M163.083 0.120 C 161.989 0.274,161.833 0.694,161.833 3.493 L 161.833 6.000 160.325 6.000 C 158.715 6.000,158.000 6.366,158.000 7.191 C 158.000 7.361,157.925 7.500,157.833 7.500 C 157.742 7.500,157.667 7.871,157.667 8.323 C 157.667 8.776,157.742 9.193,157.833 9.250 C 157.925 9.307,158.000 9.500,158.000 9.680 C 158.000 9.867,158.178 10.088,158.417 10.197 C 158.646 10.301,158.833 10.450,158.833 10.527 C 158.833 10.604,159.497 10.667,160.308 10.667 L 161.784 10.667 161.768 15.757 C 161.758 19.089,161.812 20.888,161.925 20.965 C 162.020 21.030,162.200 21.402,162.325 21.792 C 162.451 22.181,162.616 22.500,162.693 22.500 C 162.770 22.500,162.833 22.598,162.833 22.719 C 162.833 23.113,163.811 23.985,164.888 24.551 C 165.546 24.897,165.791 24.917,169.468 24.917 L 173.352 24.917 173.661 24.507 C 174.320 23.634,174.219 21.457,173.490 20.825 C 173.087 20.475,172.876 20.451,170.083 20.430 C 167.119 20.408,167.000 20.180,167.000 14.486 L 167.000 10.333 169.333 10.333 C 171.037 10.333,171.667 10.387,171.667 10.533 C 171.667 10.689,171.711 10.689,171.867 10.533 C 171.977 10.423,172.204 10.333,172.371 10.333 C 173.150 10.333,173.305 7.100,172.559 6.409 C 172.121 6.003,171.333 5.847,171.333 6.167 C 171.333 6.262,170.830 6.333,170.157 6.333 C 169.415 6.333,169.018 6.272,169.083 6.167 C 169.147 6.063,168.835 6.000,168.260 6.000 C 167.719 6.000,167.333 6.073,167.333 6.177 C 167.333 6.274,167.251 6.302,167.150 6.239 C 167.024 6.162,166.983 5.295,167.021 3.521 C 167.055 1.898,167.009 0.803,166.900 0.614 C 166.605 0.105,164.828 -0.125,163.083 0.120 M177.583 0.112 C 176.423 0.419,175.950 3.259,176.910 4.160 C 177.382 4.604,180.031 4.850,180.857 4.527 C 181.882 4.127,182.257 1.442,181.415 0.534 C 180.996 0.082,178.668 -0.175,177.583 0.112 M189.233 0.238 C 188.529 0.544,188.500 0.676,188.500 3.514 L 188.500 6.000 187.072 6.000 C 184.952 6.000,184.348 6.446,184.339 8.021 C 184.326 10.199,184.811 10.667,187.081 10.667 L 188.500 10.667 188.501 15.792 C 188.502 20.922,188.609 22.101,189.101 22.383 C 189.229 22.457,189.333 22.599,189.333 22.701 C 189.333 22.993,190.538 24.044,191.396 24.500 C 192.167 24.910,192.239 24.917,196.081 24.917 C 200.688 24.917,200.395 25.047,200.476 22.972 C 200.571 20.538,200.479 20.469,197.064 20.419 C 193.865 20.372,194.096 20.772,194.034 15.157 L 193.985 10.667 196.326 10.667 C 197.775 10.667,198.667 10.603,198.667 10.500 C 198.667 10.408,198.775 10.333,198.907 10.333 C 199.390 10.333,199.667 9.635,199.664 8.421 C 199.660 6.157,199.438 6.000,196.236 6.000 L 194.000 6.000 194.000 3.806 C 194.000 0.943,193.805 0.426,192.630 0.174 C 191.516 -0.065,189.857 -0.034,189.233 0.238 M227.254 0.261 C 226.519 0.644,226.505 0.703,226.503 3.458 L 226.500 6.000 225.014 6.000 C 223.533 6.000,223.527 6.002,222.908 6.602 L 222.288 7.205 222.383 8.477 C 222.520 10.302,222.960 10.667,225.027 10.667 L 226.483 10.667 226.533 16.129 C 226.571 20.241,226.636 21.653,226.795 21.838 C 226.911 21.973,227.211 22.397,227.461 22.780 C 227.878 23.418,228.977 24.333,229.327 24.333 C 229.407 24.333,229.499 24.412,229.531 24.509 C 229.787 25.276,238.333 25.191,238.333 24.421 C 238.333 24.281,238.408 24.167,238.500 24.167 C 238.598 24.167,238.667 23.581,238.667 22.742 C 238.667 20.549,238.187 20.297,234.158 20.381 C 233.058 20.404,232.848 20.360,232.491 20.028 L 232.083 19.648 232.034 15.157 L 231.985 10.667 234.338 10.667 C 236.141 10.667,236.745 10.612,236.926 10.432 C 237.055 10.302,237.238 10.171,237.332 10.139 C 237.602 10.049,237.835 8.229,237.682 7.409 C 237.445 6.139,237.144 6.012,234.375 6.006 L 232.000 6.000 232.000 3.680 C 232.000 0.823,231.847 0.436,230.617 0.172 C 229.435 -0.082,227.829 -0.039,227.254 0.261 M349.378 0.117 C 348.281 0.329,348.322 -0.180,348.372 12.572 L 348.417 24.091 348.801 24.504 C 349.392 25.139,352.850 25.140,353.329 24.505 C 353.825 23.848,353.833 23.656,353.833 12.268 C 353.833 0.170,353.853 0.391,352.731 0.145 C 352.189 0.026,349.946 0.008,349.378 0.117 M395.650 0.175 C 394.927 0.458,394.756 1.001,394.807 2.849 C 394.851 4.408,395.115 4.583,397.424 4.583 C 399.855 4.583,399.877 4.565,399.969 2.459 C 400.065 0.267,399.944 0.138,397.737 0.062 C 396.828 0.031,395.888 0.081,395.650 0.175 M290.576 0.576 L 290.167 0.985 290.167 12.503 C 290.167 19.953,290.226 24.133,290.335 24.337 C 290.566 24.768,291.504 24.998,293.031 24.999 C 295.480 25.001,295.667 24.641,295.667 19.903 C 295.667 16.699,295.777 16.304,296.326 17.544 C 296.556 18.064,296.675 18.242,297.125 18.744 C 297.240 18.872,297.333 19.021,297.333 19.077 C 297.333 19.180,298.831 21.516,298.993 21.667 C 299.227 21.883,299.857 22.873,299.999 23.248 C 300.087 23.478,300.235 23.667,300.329 23.667 C 300.423 23.667,300.500 23.762,300.500 23.880 C 300.500 24.639,301.717 25.000,304.279 25.000 C 306.811 25.000,307.470 24.436,306.423 23.167 C 306.310 23.029,306.171 22.785,306.114 22.625 C 306.057 22.465,305.933 22.333,305.839 22.333 C 305.744 22.333,305.667 22.240,305.666 22.125 C 305.666 21.945,305.452 21.641,304.669 20.715 C 304.575 20.603,304.412 20.322,304.306 20.090 C 304.200 19.857,304.059 19.667,303.993 19.667 C 303.928 19.667,303.783 19.447,303.672 19.179 C 303.560 18.910,303.364 18.650,303.235 18.601 C 303.106 18.551,303.000 18.396,303.000 18.255 C 303.000 18.115,302.930 18.000,302.845 18.000 C 302.759 18.000,302.642 17.850,302.584 17.668 C 302.526 17.485,302.389 17.241,302.281 17.126 C 301.970 16.796,300.667 14.837,300.667 14.698 C 300.667 14.630,300.798 14.456,300.958 14.311 C 301.119 14.166,301.378 13.869,301.535 13.649 C 302.111 12.840,302.425 12.445,302.762 12.102 C 302.951 11.908,303.438 11.300,303.844 10.750 C 304.250 10.200,304.676 9.690,304.791 9.617 C 304.906 9.543,305.000 9.417,305.000 9.335 C 305.000 9.254,305.227 8.939,305.504 8.635 C 305.782 8.332,306.100 7.877,306.212 7.625 C 306.323 7.373,306.471 7.167,306.541 7.167 C 306.887 7.167,306.626 6.399,306.215 6.208 C 305.500 5.876,302.483 5.933,301.824 6.292 C 301.206 6.628,300.001 7.710,299.997 7.933 C 299.996 8.015,299.808 8.260,299.580 8.476 C 299.353 8.692,299.167 8.930,299.167 9.005 C 299.167 9.080,298.960 9.361,298.708 9.630 C 297.763 10.639,297.500 10.969,297.500 11.140 C 297.500 11.237,297.402 11.377,297.282 11.450 C 297.163 11.523,296.845 11.883,296.575 12.250 C 296.306 12.617,296.010 12.970,295.918 13.036 C 295.807 13.115,295.722 11.173,295.666 7.286 C 295.559 -0.243,295.728 0.167,292.729 0.167 C 291.099 0.167,290.958 0.194,290.576 0.576 M249.154 0.821 C 248.255 1.720,248.556 4.299,249.617 4.792 C 249.924 4.934,251.010 5.000,253.033 5.000 L 256.000 5.000 256.000 14.569 L 256.000 24.137 256.513 24.569 C 257.321 25.249,260.775 25.176,260.958 24.475 C 261.003 24.305,261.105 24.167,261.186 24.167 C 261.270 24.167,261.333 20.018,261.333 14.583 L 261.333 5.000 263.981 5.000 C 266.785 5.000,267.186 4.913,267.836 4.164 C 268.548 3.343,268.202 1.133,267.256 0.461 C 267.161 0.394,263.159 0.337,258.362 0.336 L 249.641 0.333 249.154 0.821 M122.435 5.955 C 120.620 6.146,120.650 5.979,120.704 15.791 L 120.750 24.158 121.117 24.525 C 121.882 25.289,125.360 25.169,125.713 24.366 C 125.821 24.119,125.967 23.875,126.036 23.825 C 126.106 23.774,126.182 20.812,126.206 17.241 L 126.250 10.750 126.625 10.697 C 126.831 10.667,127.000 10.574,127.000 10.488 C 127.000 10.179,129.725 10.311,130.427 10.654 C 131.713 11.283,131.649 10.922,131.703 17.907 L 131.750 24.158 132.129 24.537 C 132.480 24.888,132.654 24.917,134.423 24.917 L 136.337 24.917 136.746 24.417 L 137.155 23.917 137.161 16.958 C 137.164 13.007,137.103 10.000,137.019 10.000 C 136.937 10.000,136.820 9.734,136.759 9.408 C 136.698 9.082,136.540 8.774,136.407 8.723 C 136.275 8.673,136.167 8.532,136.167 8.412 C 136.167 8.127,134.848 6.833,134.557 6.833 C 134.434 6.833,134.333 6.759,134.333 6.669 C 134.333 6.578,134.033 6.456,133.667 6.397 C 133.300 6.339,133.000 6.225,133.000 6.145 C 133.000 5.954,127.044 5.956,126.972 6.147 C 126.865 6.430,125.563 6.539,125.310 6.287 C 125.054 6.030,123.463 5.846,122.435 5.955 M275.090 5.946 C 274.452 5.985,273.852 6.078,273.757 6.152 C 273.661 6.226,273.359 6.341,273.085 6.407 C 272.811 6.473,272.548 6.577,272.502 6.638 C 272.455 6.700,272.192 6.873,271.917 7.024 C 270.950 7.555,269.979 9.055,269.877 10.173 C 269.828 10.719,269.722 11.167,269.644 11.167 C 269.437 11.167,269.459 19.789,269.667 19.917 C 269.758 19.973,269.833 20.250,269.833 20.532 C 269.833 21.173,270.172 22.333,270.360 22.333 C 270.437 22.333,270.500 22.423,270.500 22.534 C 270.500 22.795,271.789 24.009,272.608 24.517 L 273.250 24.917 279.468 24.917 L 285.685 24.917 286.006 24.500 C 286.261 24.168,286.327 23.805,286.330 22.708 C 286.336 20.500,286.584 20.601,280.891 20.500 L 276.198 20.417 275.766 19.950 C 275.528 19.693,275.333 19.304,275.333 19.085 C 275.333 18.866,275.258 18.640,275.167 18.583 C 274.397 18.107,275.036 18.000,278.639 18.000 C 280.640 18.000,282.332 17.946,282.399 17.879 C 282.465 17.813,282.963 17.668,283.504 17.557 C 284.499 17.355,284.576 17.315,285.339 16.630 C 286.616 15.483,286.859 8.840,285.625 8.834 C 285.556 8.834,285.500 8.719,285.500 8.579 C 285.500 8.248,284.085 6.833,283.754 6.833 C 283.614 6.833,283.500 6.762,283.500 6.674 C 283.500 6.587,283.219 6.464,282.875 6.402 C 282.531 6.341,282.161 6.219,282.051 6.132 C 281.835 5.961,276.967 5.831,275.090 5.946 M333.458 5.945 C 332.840 5.983,332.333 6.077,332.333 6.153 C 332.333 6.229,332.033 6.339,331.667 6.397 C 331.300 6.456,331.000 6.578,331.000 6.669 C 331.000 6.759,330.904 6.833,330.787 6.833 C 330.309 6.833,328.667 8.700,328.667 9.244 C 328.667 9.369,328.573 9.503,328.458 9.542 C 327.755 9.776,328.299 22.500,329.012 22.500 C 329.075 22.500,329.215 22.715,329.324 22.978 C 329.433 23.240,329.723 23.559,329.969 23.686 C 330.215 23.812,330.477 24.010,330.550 24.125 C 330.623 24.239,330.792 24.333,330.925 24.333 C 331.058 24.333,331.167 24.403,331.167 24.488 C 331.167 25.193,340.778 25.208,341.917 24.505 C 343.148 23.745,343.646 23.259,344.287 22.189 L 344.750 21.417 344.750 15.583 C 344.750 9.760,344.749 9.749,344.351 8.970 C 343.954 8.194,342.849 7.000,342.527 7.000 C 342.433 7.000,342.258 6.902,342.137 6.782 C 341.437 6.088,337.395 5.698,333.458 5.945 M361.338 5.946 C 360.837 5.987,360.349 6.081,360.255 6.155 C 360.161 6.229,359.802 6.341,359.458 6.402 C 359.115 6.464,358.833 6.582,358.833 6.663 C 358.833 6.744,358.675 6.861,358.482 6.923 C 358.015 7.071,356.833 8.147,356.833 8.424 C 356.833 8.544,356.713 8.763,356.567 8.909 C 356.420 9.056,356.260 9.476,356.211 9.842 C 356.162 10.208,356.057 10.548,355.978 10.597 C 355.770 10.725,355.792 20.288,356.000 20.417 C 356.092 20.473,356.167 20.670,356.167 20.853 C 356.167 21.283,356.976 23.000,357.179 23.000 C 357.264 23.000,357.333 23.110,357.333 23.244 C 357.333 23.378,357.497 23.576,357.698 23.683 C 358.055 23.875,358.275 24.038,358.746 24.461 C 359.568 25.199,369.667 25.222,369.667 24.486 C 369.667 24.402,369.764 24.333,369.882 24.333 C 370.158 24.333,371.667 22.973,371.667 22.724 C 371.667 22.621,371.772 22.495,371.900 22.446 C 372.028 22.397,372.185 22.051,372.248 21.678 C 372.311 21.305,372.431 21.000,372.515 21.000 C 372.706 21.000,372.720 10.294,372.528 10.075 C 372.452 9.988,372.295 9.584,372.179 9.178 C 371.960 8.410,370.540 6.833,370.068 6.833 C 369.939 6.833,369.833 6.762,369.833 6.674 C 369.833 6.587,369.552 6.463,369.208 6.400 C 368.865 6.337,368.535 6.211,368.477 6.121 C 368.364 5.948,362.954 5.816,361.338 5.946 M380.925 5.948 C 380.196 5.985,379.521 6.078,379.425 6.155 C 379.329 6.232,379.006 6.347,378.708 6.411 C 378.410 6.474,378.167 6.590,378.167 6.669 C 378.167 6.747,378.020 6.857,377.841 6.914 C 377.425 7.046,376.333 8.133,376.333 8.416 C 376.333 8.534,376.225 8.673,376.093 8.723 C 375.960 8.774,375.802 9.082,375.741 9.408 C 375.680 9.734,375.563 10.000,375.481 10.000 C 375.398 10.000,375.333 12.590,375.333 15.947 C 375.333 23.260,375.318 23.203,377.664 24.465 C 378.227 24.768,380.876 24.988,384.042 24.994 L 386.667 25.000 386.667 25.412 C 386.667 25.846,386.092 26.999,385.772 27.206 C 385.668 27.273,383.858 27.337,381.750 27.347 C 376.520 27.374,376.481 27.390,376.367 29.559 C 376.295 30.931,376.304 30.973,376.790 31.481 L 377.286 32.000 382.717 32.000 C 385.855 32.000,388.187 31.935,388.242 31.846 C 388.294 31.762,388.561 31.643,388.835 31.583 C 389.109 31.523,389.333 31.404,389.333 31.320 C 389.333 31.236,389.434 31.167,389.557 31.167 C 389.851 31.167,391.117 29.920,391.251 29.497 C 391.309 29.315,391.419 29.167,391.497 29.167 C 391.574 29.167,391.688 28.867,391.750 28.501 C 391.812 28.135,391.931 27.793,392.015 27.741 C 392.104 27.686,392.167 23.446,392.167 17.516 C 392.167 6.855,392.132 6.333,391.418 6.333 C 391.295 6.333,391.164 6.242,391.127 6.130 C 391.057 5.922,383.946 5.796,380.925 5.948 M143.417 6.167 C 143.360 6.258,143.183 6.333,143.024 6.333 C 142.865 6.333,142.588 6.446,142.409 6.584 C 142.230 6.722,141.823 7.005,141.504 7.213 C 141.185 7.421,140.755 7.852,140.549 8.171 C 140.342 8.489,140.095 8.842,139.999 8.955 C 139.904 9.068,139.781 9.387,139.726 9.663 C 139.670 9.940,139.559 10.167,139.479 10.167 C 139.275 10.167,139.295 13.623,139.500 13.750 C 139.592 13.807,139.667 13.993,139.667 14.165 C 139.667 14.336,139.767 14.577,139.890 14.700 C 140.013 14.823,140.210 15.103,140.327 15.322 C 140.643 15.911,141.522 16.833,141.768 16.833 C 141.887 16.833,142.043 16.938,142.117 17.066 C 142.273 17.339,143.358 17.664,144.115 17.666 C 144.408 17.666,144.693 17.742,144.750 17.833 C 144.884 18.050,146.449 18.050,146.583 17.833 C 146.719 17.615,149.000 17.615,149.000 17.833 C 149.000 17.925,149.169 18.001,149.375 18.003 C 149.966 18.007,150.979 19.146,150.526 19.297 C 150.420 19.332,150.333 19.473,150.333 19.609 C 150.333 20.353,149.987 20.416,145.762 20.435 C 140.441 20.460,140.611 20.448,140.151 20.847 C 139.436 21.467,139.449 23.869,140.170 24.527 L 140.709 25.019 146.479 24.968 C 152.194 24.917,152.256 24.913,152.876 24.527 C 153.670 24.034,154.947 22.763,155.084 22.331 C 155.142 22.149,155.250 22.000,155.325 22.000 C 155.493 22.000,155.833 20.689,155.833 20.043 C 155.833 19.781,155.922 19.478,156.030 19.370 C 156.176 19.224,156.179 19.076,156.043 18.795 C 155.942 18.587,155.816 18.048,155.763 17.597 C 155.601 16.235,153.845 14.006,152.715 13.729 C 152.459 13.667,152.196 13.533,152.131 13.433 C 152.055 13.316,150.857 13.220,148.797 13.167 C 145.157 13.072,144.833 12.958,144.833 11.769 C 144.833 10.772,145.318 10.667,149.900 10.667 C 152.411 10.667,153.833 10.606,153.833 10.500 C 153.833 10.408,153.940 10.333,154.071 10.333 C 154.202 10.333,154.465 10.136,154.655 9.894 C 155.351 9.009,154.996 6.333,154.182 6.333 C 154.082 6.333,154.000 6.258,154.000 6.167 C 154.000 6.059,152.142 6.000,148.760 6.000 C 145.446 6.000,143.482 6.061,143.417 6.167 M177.500 6.167 C 177.500 6.258,177.399 6.333,177.276 6.333 C 176.506 6.333,176.500 6.402,176.500 15.562 C 176.500 25.928,176.220 24.917,179.091 24.917 C 180.948 24.917,181.007 24.905,181.415 24.466 L 181.833 24.015 181.833 15.509 C 181.833 6.465,181.822 6.333,181.046 6.333 C 180.929 6.333,180.833 6.258,180.833 6.167 C 180.833 6.067,180.167 6.000,179.167 6.000 C 178.167 6.000,177.500 6.067,177.500 6.167 M204.000 6.167 C 204.000 6.258,203.886 6.333,203.746 6.333 C 203.207 6.333,203.150 7.163,203.200 14.324 L 203.250 21.417 203.713 22.189 C 204.354 23.259,204.852 23.745,206.083 24.505 C 207.222 25.208,216.833 25.193,216.833 24.488 C 216.833 24.403,216.907 24.333,216.998 24.333 C 217.290 24.333,218.486 23.426,218.589 23.126 C 218.644 22.966,218.777 22.741,218.886 22.626 C 219.725 21.736,219.747 21.527,219.790 14.083 C 219.834 6.427,219.876 6.783,218.870 6.208 C 218.002 5.713,215.361 5.968,214.500 6.630 C 214.454 6.665,214.379 9.562,214.333 13.067 C 214.258 18.848,214.223 19.468,213.958 19.732 C 213.798 19.893,213.667 20.085,213.667 20.159 C 213.667 20.565,210.778 20.827,209.915 20.499 C 208.709 20.041,208.667 19.797,208.667 13.295 C 208.667 7.373,208.550 6.333,207.885 6.333 C 207.765 6.333,207.667 6.258,207.667 6.167 C 207.667 6.066,206.944 6.000,205.833 6.000 C 204.722 6.000,204.000 6.066,204.000 6.167 M309.833 6.298 C 309.604 6.452,309.362 6.654,309.294 6.747 C 309.227 6.840,309.171 10.791,309.169 15.527 L 309.167 24.137 309.679 24.569 C 310.141 24.957,310.331 25.000,311.575 25.000 C 314.690 25.000,314.500 25.499,314.500 17.311 L 314.500 10.840 314.917 10.735 C 315.146 10.678,315.333 10.564,315.333 10.482 C 315.333 10.185,318.474 10.309,318.961 10.625 C 320.159 11.402,320.078 10.902,320.131 17.851 L 320.178 24.119 320.603 24.518 C 321.262 25.137,324.619 25.126,325.199 24.504 L 325.583 24.091 325.583 17.087 L 325.583 10.083 324.942 8.935 C 324.241 7.679,323.654 7.045,323.055 6.895 C 322.841 6.841,322.667 6.734,322.667 6.656 C 322.667 6.579,322.403 6.466,322.081 6.405 C 321.760 6.345,321.455 6.229,321.405 6.148 C 321.264 5.919,315.606 5.961,315.375 6.192 C 315.107 6.460,313.630 6.473,313.542 6.208 C 313.429 5.869,310.361 5.943,309.833 6.298 M395.453 6.307 C 394.755 6.723,394.750 6.792,394.750 15.787 L 394.750 24.158 395.129 24.537 C 395.480 24.888,395.653 24.917,397.430 24.917 C 400.259 24.917,399.992 25.896,399.996 15.531 C 400.000 6.944,399.961 6.333,399.411 6.333 C 399.277 6.333,399.167 6.258,399.167 6.167 C 399.167 5.870,395.985 5.990,395.453 6.307 M280.385 10.801 C 280.750 11.182,280.833 11.424,280.833 12.107 C 280.833 13.256,280.621 13.333,277.475 13.333 L 274.965 13.333 275.056 12.708 C 275.396 10.386,275.451 10.342,278.010 10.337 C 279.907 10.333,279.945 10.341,280.385 10.801 M338.882 10.676 C 339.333 11.097,339.471 19.929,339.033 20.367 C 338.371 21.030,333.964 20.676,333.768 19.945 C 333.524 19.035,333.661 11.184,333.925 10.965 C 334.067 10.847,334.273 10.659,334.383 10.548 C 334.765 10.163,338.443 10.267,338.882 10.676 M366.753 10.792 L 367.156 11.250 367.161 15.549 C 367.168 20.916,367.354 20.559,364.505 20.639 C 361.322 20.728,361.333 20.746,361.333 15.500 C 361.333 11.570,361.476 10.667,362.096 10.667 C 362.226 10.667,362.333 10.592,362.333 10.500 C 362.333 10.046,366.328 10.309,366.753 10.792 M386.667 15.333 L 386.667 20.333 383.988 20.333 C 380.502 20.333,380.833 20.839,380.833 15.524 L 380.833 11.191 381.375 10.764 C 381.898 10.351,381.997 10.337,384.292 10.335 L 386.667 10.333 386.667 15.333 M174.780 37.958 C 173.794 38.702,173.824 38.046,173.872 58.221 L 173.917 76.802 174.564 77.431 C 175.830 78.660,180.249 78.713,181.371 77.513 C 182.173 76.654,182.167 76.816,182.166 57.834 C 182.165 37.524,182.222 38.410,180.857 37.679 C 180.046 37.245,175.445 37.456,174.780 37.958 M189.665 37.637 C 189.177 37.857,188.500 38.564,188.500 38.854 C 188.500 39.015,188.425 39.193,188.333 39.250 C 188.131 39.375,188.098 76.333,188.300 76.333 C 188.373 76.333,188.523 76.583,188.634 76.888 C 189.270 78.649,195.121 78.737,196.031 77.000 C 196.151 76.771,196.319 76.533,196.404 76.472 C 196.495 76.406,196.545 73.679,196.525 69.805 L 196.492 63.250 196.942 64.000 C 197.190 64.412,197.435 64.787,197.488 64.833 C 197.645 64.970,198.238 65.883,198.489 66.375 C 198.618 66.627,198.785 66.833,198.861 66.833 C 198.938 66.833,199.000 66.931,199.000 67.049 C 199.000 67.168,199.112 67.412,199.250 67.591 C 199.754 68.248,200.333 69.186,200.333 69.346 C 200.333 69.436,200.446 69.554,200.583 69.606 C 200.721 69.659,200.833 69.766,200.833 69.844 C 200.833 69.983,201.500 71.057,201.831 71.451 C 201.924 71.562,202.000 71.705,202.000 71.769 C 202.000 71.833,202.188 72.131,202.417 72.431 C 202.646 72.732,202.833 73.058,202.833 73.156 C 202.833 73.253,202.907 73.333,202.998 73.333 C 203.088 73.333,203.278 73.577,203.420 73.875 C 203.904 74.890,204.185 75.333,204.342 75.333 C 204.429 75.333,204.500 75.431,204.500 75.549 C 204.500 76.007,205.696 77.334,206.500 77.768 C 207.020 78.049,207.470 78.083,210.634 78.083 L 214.185 78.083 214.506 77.667 C 214.820 77.257,214.962 76.167,214.700 76.167 C 214.627 76.167,214.472 75.904,214.356 75.583 C 214.240 75.262,214.075 75.000,213.989 75.000 C 213.903 75.000,213.833 74.885,213.833 74.745 C 213.833 74.604,213.721 74.446,213.583 74.394 C 213.446 74.341,213.333 74.207,213.333 74.097 C 213.333 73.987,213.183 73.735,213.000 73.538 C 212.817 73.342,212.667 73.100,212.667 73.002 C 212.667 72.903,212.567 72.785,212.445 72.738 C 212.323 72.691,212.122 72.393,211.997 72.076 C 211.873 71.759,211.708 71.500,211.631 71.500 C 211.555 71.500,211.420 71.313,211.333 71.083 C 211.246 70.854,211.098 70.667,211.004 70.667 C 210.910 70.667,210.833 70.582,210.833 70.479 C 210.833 70.377,210.496 69.819,210.083 69.241 C 209.671 68.663,209.333 68.110,209.333 68.012 C 209.333 67.914,209.256 67.833,209.163 67.833 C 209.069 67.833,208.920 67.646,208.833 67.417 C 208.746 67.188,208.598 67.000,208.504 67.000 C 208.410 67.000,208.333 66.885,208.333 66.745 C 208.333 66.604,208.228 66.449,208.098 66.399 C 207.969 66.350,207.819 66.132,207.765 65.916 C 207.711 65.700,207.573 65.424,207.458 65.303 C 207.344 65.182,207.025 64.746,206.750 64.333 C 206.162 63.451,206.010 63.246,205.641 62.838 C 205.490 62.670,205.316 62.376,205.255 62.183 C 205.194 61.991,205.070 61.833,204.979 61.833 C 204.888 61.833,204.856 61.765,204.908 61.681 C 204.960 61.597,204.913 61.499,204.803 61.462 C 204.669 61.417,204.710 61.282,204.927 61.048 C 205.397 60.543,206.226 59.497,206.404 59.186 C 206.488 59.038,206.695 58.819,206.862 58.699 C 207.030 58.579,207.167 58.410,207.167 58.324 C 207.167 58.237,207.298 58.027,207.458 57.857 C 207.619 57.687,208.012 57.194,208.333 56.761 C 208.654 56.328,209.085 55.816,209.292 55.624 C 209.498 55.431,209.667 55.211,209.667 55.135 C 209.667 55.005,209.951 54.654,211.042 53.437 C 211.294 53.156,211.500 52.875,211.500 52.813 C 211.500 52.707,211.950 52.147,212.792 51.204 C 212.998 50.974,213.167 50.735,213.167 50.675 C 213.167 50.615,213.429 50.279,213.750 49.928 C 214.411 49.207,214.565 48.089,214.071 47.595 C 213.531 47.055,207.113 47.291,206.395 47.878 C 205.629 48.504,204.500 49.659,204.500 49.817 C 204.500 49.918,204.438 50.000,204.362 50.000 C 204.285 50.000,203.970 50.356,203.660 50.792 C 203.350 51.227,203.037 51.608,202.965 51.639 C 202.893 51.669,202.833 51.798,202.833 51.925 C 202.833 52.051,202.683 52.235,202.500 52.333 C 202.317 52.431,202.167 52.618,202.167 52.748 C 202.167 52.877,202.065 53.043,201.941 53.117 C 201.817 53.190,201.624 53.424,201.512 53.638 C 201.300 54.040,201.161 54.216,200.330 55.131 C 200.057 55.432,199.833 55.743,199.833 55.822 C 199.833 55.900,199.647 56.142,199.420 56.358 C 199.192 56.573,199.004 56.841,199.003 56.952 C 199.001 57.064,198.850 57.235,198.667 57.333 C 198.483 57.431,198.333 57.615,198.333 57.742 C 198.333 57.869,198.275 57.997,198.204 58.028 C 198.132 58.058,197.720 58.521,197.287 59.057 L 196.500 60.031 196.500 49.432 C 196.500 43.603,196.437 38.833,196.360 38.833 C 196.283 38.833,196.133 38.642,196.026 38.408 C 195.695 37.680,194.939 37.499,192.297 37.512 C 190.988 37.518,189.804 37.574,189.665 37.637 M114.535 38.076 C 113.908 38.423,113.333 39.038,113.333 39.362 C 113.333 39.530,113.258 39.667,113.167 39.667 C 113.066 39.667,113.000 40.358,113.000 41.407 C 113.000 42.387,113.073 43.192,113.167 43.250 C 113.258 43.307,113.333 43.482,113.333 43.639 C 113.333 43.797,113.571 44.186,113.862 44.505 L 114.390 45.083 119.614 45.134 L 124.838 45.184 124.831 60.752 C 124.823 77.929,124.773 77.127,125.876 77.808 C 127.228 78.644,131.293 78.497,132.268 77.577 C 133.167 76.730,133.158 76.888,133.163 60.458 L 133.167 45.167 137.625 45.166 C 143.723 45.165,144.000 45.011,144.000 41.609 C 144.000 39.277,143.777 38.750,142.543 38.167 C 141.660 37.750,115.282 37.664,114.535 38.076 M147.816 47.518 C 146.862 47.702,145.103 48.606,144.336 49.306 C 144.019 49.596,143.711 49.833,143.652 49.833 C 143.593 49.833,143.329 50.152,143.064 50.542 C 142.800 50.931,142.493 51.346,142.382 51.464 C 142.271 51.581,142.131 51.937,142.071 52.255 C 142.012 52.573,141.901 52.833,141.825 52.833 C 141.749 52.833,141.636 53.172,141.574 53.585 C 141.512 53.999,141.398 54.377,141.320 54.425 C 141.128 54.544,141.119 71.118,141.311 71.236 C 141.394 71.287,141.512 71.668,141.574 72.081 C 141.636 72.495,141.746 72.833,141.817 72.833 C 141.889 72.833,142.034 73.124,142.141 73.480 C 142.248 73.836,142.447 74.220,142.584 74.334 C 142.721 74.448,142.833 74.612,142.833 74.698 C 142.833 74.784,143.205 75.206,143.660 75.636 C 144.773 76.686,144.930 76.812,145.371 77.002 C 145.579 77.092,145.862 77.236,146.000 77.322 C 147.431 78.218,148.693 78.325,157.833 78.322 C 166.708 78.318,167.500 78.196,167.500 76.825 C 167.500 76.646,167.575 76.500,167.667 76.500 C 167.769 76.500,167.833 75.722,167.833 74.500 C 167.833 73.400,167.767 72.500,167.687 72.500 C 167.606 72.500,167.454 72.291,167.348 72.035 C 166.929 71.024,166.809 71.009,158.821 70.960 L 151.558 70.917 150.969 70.512 C 150.410 70.129,150.000 69.396,150.000 68.780 C 150.000 68.626,149.925 68.500,149.833 68.500 C 149.741 68.500,149.667 68.058,149.667 67.507 L 149.667 66.515 156.042 66.454 C 162.136 66.396,162.701 66.371,163.083 66.140 C 163.175 66.085,163.494 65.987,163.792 65.923 C 164.090 65.859,164.333 65.744,164.333 65.667 C 164.333 65.590,164.563 65.476,164.845 65.414 C 165.126 65.352,165.396 65.196,165.446 65.068 C 165.495 64.939,165.627 64.833,165.739 64.833 C 165.989 64.833,166.667 64.132,166.667 63.873 C 166.667 63.768,166.762 63.623,166.879 63.550 C 167.145 63.382,167.500 62.588,167.500 62.159 C 167.500 61.980,167.575 61.833,167.667 61.833 C 167.873 61.833,167.898 54.640,167.693 54.408 C 167.616 54.321,167.461 53.819,167.348 53.292 C 167.235 52.765,167.079 52.333,167.001 52.333 C 166.923 52.333,166.810 52.105,166.749 51.827 C 166.631 51.291,163.606 48.108,163.382 48.284 C 163.282 48.363,162.333 47.956,162.333 47.834 C 162.333 47.372,149.969 47.104,147.816 47.518 M224.250 47.517 C 223.883 47.600,223.433 47.732,223.250 47.811 C 222.510 48.128,221.732 48.509,221.421 48.707 C 220.862 49.063,219.167 50.773,219.167 50.981 C 219.167 51.089,219.059 51.219,218.927 51.269 C 218.795 51.320,218.639 51.580,218.580 51.847 C 218.522 52.115,218.408 52.333,218.328 52.333 C 218.247 52.333,218.132 52.597,218.072 52.919 C 218.012 53.240,217.898 53.543,217.820 53.592 C 217.742 53.640,217.722 53.902,217.776 54.173 C 217.839 54.486,217.806 54.667,217.688 54.667 C 217.551 54.667,217.500 56.895,217.500 62.833 C 217.500 68.735,217.552 71.000,217.686 71.000 C 217.795 71.000,217.839 71.174,217.792 71.421 C 217.748 71.652,217.768 71.876,217.837 71.919 C 217.906 71.961,218.012 72.260,218.072 72.581 C 218.132 72.903,218.246 73.167,218.325 73.167 C 218.403 73.167,218.545 73.390,218.640 73.663 C 218.839 74.232,218.897 74.307,220.250 75.728 C 221.162 76.686,222.679 77.667,223.250 77.667 C 223.372 77.667,223.497 77.739,223.528 77.827 C 223.778 78.552,237.029 78.497,238.417 77.766 C 238.692 77.621,239.048 77.502,239.208 77.501 C 239.369 77.500,239.500 77.437,239.500 77.360 C 239.500 77.226,240.161 76.858,240.333 76.897 C 240.411 76.915,242.379 74.942,242.756 74.467 C 242.851 74.348,243.033 73.987,243.161 73.667 C 243.288 73.346,243.492 72.935,243.613 72.755 C 243.734 72.574,243.833 72.270,243.833 72.080 C 243.833 71.889,243.927 71.640,244.042 71.525 C 244.203 71.364,244.250 69.381,244.250 62.750 C 244.250 56.119,244.203 54.136,244.042 53.975 C 243.927 53.860,243.833 53.611,243.833 53.420 C 243.833 53.230,243.734 52.926,243.613 52.745 C 243.492 52.565,243.289 52.157,243.162 51.840 C 243.035 51.524,242.834 51.149,242.716 51.007 C 241.825 49.939,241.061 49.167,240.897 49.167 C 240.790 49.167,240.659 49.054,240.606 48.917 C 240.554 48.779,240.396 48.667,240.255 48.667 C 240.115 48.667,240.000 48.579,240.000 48.472 C 240.000 48.365,239.954 48.324,239.897 48.381 C 239.840 48.438,239.685 48.375,239.552 48.242 C 239.418 48.109,239.127 48.000,238.905 48.000 C 238.682 48.000,238.500 47.933,238.500 47.850 C 238.500 47.376,226.154 47.087,224.250 47.517 M251.569 47.570 C 250.973 47.830,250.333 48.577,250.333 49.013 C 250.333 49.178,250.258 49.360,250.167 49.417 C 250.058 49.484,250.000 54.137,250.000 62.833 C 250.000 71.529,250.058 76.183,250.167 76.250 C 250.258 76.307,250.333 76.501,250.333 76.682 C 250.333 76.863,250.445 77.053,250.582 77.106 C 250.719 77.159,250.800 77.252,250.762 77.315 C 250.555 77.649,251.831 78.147,253.277 78.297 C 256.143 78.594,257.766 78.029,258.350 76.531 C 258.433 76.316,258.500 71.470,258.500 65.587 L 258.500 55.030 259.292 54.640 C 261.047 53.777,262.928 54.183,264.114 55.682 L 264.667 56.380 264.667 66.440 C 264.667 73.036,264.724 76.500,264.833 76.500 C 264.925 76.500,265.000 76.599,265.000 76.721 C 265.000 76.945,265.273 77.257,265.967 77.824 C 266.562 78.310,269.422 78.512,271.208 78.194 C 272.010 78.051,272.667 77.621,272.667 77.238 C 272.667 77.122,272.760 76.997,272.875 76.958 C 273.038 76.904,273.094 74.508,273.131 65.896 L 273.178 54.903 273.780 54.579 C 274.600 54.137,276.816 54.115,277.290 54.544 C 277.466 54.703,277.681 54.833,277.768 54.833 C 277.855 54.833,278.066 55.002,278.236 55.208 C 278.407 55.415,278.667 55.722,278.815 55.892 C 279.053 56.167,279.093 57.345,279.167 66.476 L 279.250 76.750 279.878 77.372 C 280.223 77.714,280.523 77.991,280.544 77.986 C 280.566 77.982,280.696 78.016,280.833 78.063 C 282.228 78.532,286.005 78.352,286.567 77.790 C 286.727 77.631,286.921 77.500,286.999 77.500 C 287.076 77.500,287.190 77.275,287.250 77.000 C 287.310 76.725,287.429 76.500,287.513 76.500 C 287.731 76.500,287.718 54.385,287.500 54.250 C 287.408 54.193,287.333 53.964,287.333 53.741 C 287.333 52.339,284.887 49.225,283.083 48.330 C 282.625 48.103,282.212 47.868,282.167 47.808 C 281.703 47.202,272.767 47.194,272.344 47.799 C 272.292 47.873,271.925 48.028,271.528 48.144 C 271.131 48.260,270.574 48.496,270.291 48.668 C 269.756 48.993,269.400 48.924,268.867 48.391 C 268.744 48.268,268.442 48.118,268.197 48.058 C 267.951 47.998,267.711 47.890,267.663 47.817 C 267.164 47.066,260.537 47.225,258.865 48.028 L 258.147 48.373 257.767 48.016 C 257.025 47.319,252.837 47.018,251.569 47.570 M157.994 54.474 C 158.309 54.642,158.645 54.924,158.741 55.099 C 158.838 55.273,158.992 55.470,159.083 55.536 C 159.175 55.601,159.250 56.287,159.250 57.059 C 159.250 59.283,159.532 59.167,154.141 59.167 L 149.667 59.167 149.667 57.583 C 149.667 56.639,149.734 56.000,149.833 56.000 C 149.925 56.000,150.000 55.829,150.000 55.620 C 150.000 55.061,150.442 54.527,151.049 54.351 C 152.129 54.039,157.355 54.131,157.994 54.474 M233.229 54.348 C 234.000 54.562,235.097 55.569,235.256 56.208 C 235.318 56.460,235.436 56.667,235.518 56.667 C 235.713 56.667,235.714 68.785,235.518 68.905 C 235.437 68.956,235.321 69.195,235.260 69.436 C 235.125 69.975,234.381 70.744,233.827 70.917 C 233.601 70.987,233.363 71.129,233.298 71.231 C 233.220 71.353,232.398 71.417,230.917 71.417 C 229.435 71.417,228.613 71.353,228.536 71.231 C 228.470 71.129,228.260 70.996,228.069 70.936 C 227.520 70.765,226.703 69.954,226.578 69.455 C 226.515 69.205,226.397 69.000,226.315 69.000 C 226.095 69.000,226.122 56.536,226.343 56.285 C 226.440 56.174,226.657 55.852,226.824 55.570 C 227.551 54.340,230.900 53.701,233.229 54.348 M13.460 56.451 C 13.668 56.491,13.968 56.490,14.127 56.448 C 14.286 56.406,14.117 56.374,13.750 56.375 C 13.383 56.377,13.253 56.411,13.460 56.451 M76.667 56.502 C 76.491 56.618,76.590 56.634,77.000 56.559 C 77.719 56.427,77.854 56.332,77.319 56.336 C 77.098 56.337,76.804 56.412,76.667 56.502 " stroke="none" fill="#343434" fill-rule="evenodd"></path><path id="path4" d="M89.250 0.526 C 87.588 0.822,86.231 0.983,85.325 0.991 C 84.816 0.996,84.329 1.068,84.242 1.152 C 84.081 1.306,80.903 1.418,71.583 1.597 C 68.742 1.652,66.345 1.765,66.258 1.848 C 66.171 1.932,65.725 2.000,65.267 2.000 C 64.029 2.000,60.608 2.351,60.417 2.498 C 60.325 2.569,59.745 2.679,59.127 2.743 C 58.509 2.807,57.968 2.918,57.924 2.989 C 57.880 3.060,57.279 3.214,56.589 3.332 C 55.898 3.451,55.333 3.601,55.333 3.667 C 55.333 3.734,54.883 3.883,54.333 4.000 C 53.783 4.117,53.333 4.274,53.333 4.349 C 53.333 4.424,53.071 4.534,52.750 4.594 C 52.429 4.655,52.167 4.762,52.167 4.834 C 52.167 4.905,51.966 5.014,51.720 5.076 C 50.932 5.274,48.879 6.325,48.370 6.791 C 48.246 6.906,47.961 7.045,47.738 7.101 C 47.516 7.157,47.333 7.272,47.333 7.357 C 47.333 7.441,47.202 7.567,47.042 7.636 C 46.411 7.906,45.667 8.429,45.575 8.667 C 45.148 9.766,45.067 30.438,45.467 36.294 C 45.560 37.666,45.540 37.988,45.366 37.921 C 45.247 37.875,45.195 37.911,45.251 38.002 C 45.433 38.296,45.788 38.177,46.086 37.723 C 46.246 37.478,46.690 36.972,47.074 36.598 C 47.457 36.223,47.820 35.785,47.880 35.625 C 47.940 35.465,48.072 35.333,48.174 35.333 C 48.275 35.333,48.634 35.072,48.971 34.753 C 50.421 33.378,50.839 33.038,51.322 32.838 C 51.603 32.722,51.833 32.569,51.833 32.500 C 51.833 32.431,52.058 32.281,52.333 32.167 C 52.608 32.053,52.833 31.894,52.833 31.813 C 52.833 31.733,52.940 31.667,53.071 31.667 C 53.202 31.667,53.412 31.564,53.538 31.439 C 53.663 31.313,53.950 31.154,54.174 31.085 C 54.399 31.017,54.883 30.830,55.250 30.671 C 56.343 30.198,56.577 30.112,56.708 30.140 C 56.777 30.155,56.833 30.101,56.833 30.021 C 56.833 29.941,57.148 29.826,57.533 29.764 C 57.918 29.702,58.320 29.580,58.426 29.492 C 58.532 29.404,59.249 29.244,60.018 29.138 C 60.787 29.031,61.454 28.889,61.500 28.823 C 61.546 28.756,62.671 28.622,64.000 28.523 C 66.378 28.348,67.729 28.303,79.819 27.999 C 83.157 27.915,85.932 27.783,85.986 27.706 C 86.040 27.628,86.983 27.469,88.083 27.352 C 89.183 27.234,90.108 27.070,90.139 26.986 C 90.169 26.902,90.332 26.833,90.500 26.833 C 91.389 26.833,91.333 27.718,91.333 13.482 L 91.333 0.333 90.708 0.356 C 90.365 0.368,89.708 0.445,89.250 0.526 M17.500 28.160 C 19.287 28.209,20.862 28.196,21.000 28.130 C 21.137 28.064,19.675 28.023,17.750 28.040 L 14.250 28.069 17.500 28.160 " stroke="none" fill="#b42c33" fill-rule="evenodd"></path></g></svg>